<svg xmlns="http://www.w3.org/2000/svg" viewBox="0 0 1200 799" width="1200" height="799"><defs><linearGradient id="ng" x1="0" y1="0" x2="0" y2="1"><stop offset="0" stop-color="#0d0b2e"/><stop offset="1" stop-color="#3b1d6e"/></linearGradient><radialGradient id="lamp"><stop offset="0" stop-color="#ffd28a" stop-opacity="0.8"/><stop offset="1" stop-color="#ffd28a" stop-opacity="0"/></radialGradient></defs><rect width="1200" height="799" fill="#000"/><rect width="1200" height="799" fill="url(#ng)"/><circle cx="0" cy="0" r="1.0" fill="#fff" fill-opacity=".7"/><circle cx="137" cy="61" r="1.6" fill="#fff" fill-opacity=".7"/><circle cx="274" cy="122" r="2.2" fill="#fff" fill-opacity=".7"/><circle cx="411" cy="183" r="1.0" fill="#fff" fill-opacity=".7"/><circle cx="548" cy="244" r="1.6" fill="#fff" fill-opacity=".7"/><circle cx="685" cy="305" r="2.2" fill="#fff" fill-opacity=".7"/><circle cx="822" cy="36" r="1.0" fill="#fff" fill-opacity=".7"/><circle cx="959" cy="97" r="1.6" fill="#fff" fill-opacity=".7"/><circle cx="1096" cy="158" r="2.2" fill="#fff" fill-opacity=".7"/><circle cx="33" cy="219" r="1.0" fill="#fff" fill-opacity=".7"/><circle cx="170" cy="280" r="1.6" fill="#fff" fill-opacity=".7"/><circle cx="307" cy="11" r="2.2" fill="#fff" fill-opacity=".7"/><circle cx="444" cy="72" r="1.0" fill="#fff" fill-opacity=".7"/><circle cx="581" cy="133" r="1.6" fill="#fff" fill-opacity=".7"/><circle cx="718" cy="194" r="2.2" fill="#fff" fill-opacity=".7"/><circle cx="855" cy="255" r="1.0" fill="#fff" fill-opacity=".7"/><circle cx="992" cy="316" r="1.6" fill="#fff" fill-opacity=".7"/><circle cx="1129" cy="47" r="2.2" fill="#fff" fill-opacity=".7"/><circle cx="66" cy="108" r="1.0" fill="#fff" fill-opacity=".7"/><circle cx="203" cy="169" r="1.6" fill="#fff" fill-opacity=".7"/><circle cx="340" cy="230" r="2.2" fill="#fff" fill-opacity=".7"/><circle cx="477" cy="291" r="1.0" fill="#fff" fill-opacity=".7"/><circle cx="614" cy="22" r="1.6" fill="#fff" fill-opacity=".7"/><circle cx="751" cy="83" r="2.2" fill="#fff" fill-opacity=".7"/><circle cx="888" cy="144" r="1.0" fill="#fff" fill-opacity=".7"/><circle cx="1025" cy="205" r="1.6" fill="#fff" fill-opacity=".7"/><circle cx="1162" cy="266" r="2.2" fill="#fff" fill-opacity=".7"/><circle cx="99" cy="327" r="1.0" fill="#fff" fill-opacity=".7"/><circle cx="236" cy="58" r="1.6" fill="#fff" fill-opacity=".7"/><circle cx="373" cy="119" r="2.2" fill="#fff" fill-opacity=".7"/><circle cx="510" cy="180" r="1.0" fill="#fff" fill-opacity=".7"/><circle cx="647" cy="241" r="1.6" fill="#fff" fill-opacity=".7"/><circle cx="784" cy="302" r="2.2" fill="#fff" fill-opacity=".7"/><circle cx="921" cy="33" r="1.0" fill="#fff" fill-opacity=".7"/><circle cx="1058" cy="94" r="1.6" fill="#fff" fill-opacity=".7"/><circle cx="1195" cy="155" r="2.2" fill="#fff" fill-opacity=".7"/><circle cx="132" cy="216" r="1.0" fill="#fff" fill-opacity=".7"/><circle cx="269" cy="277" r="1.6" fill="#fff" fill-opacity=".7"/><circle cx="406" cy="8" r="2.2" fill="#fff" fill-opacity=".7"/><circle cx="543" cy="69" r="1.0" fill="#fff" fill-opacity=".7"/><circle cx="680" cy="130" r="1.6" fill="#fff" fill-opacity=".7"/><circle cx="817" cy="191" r="2.2" fill="#fff" fill-opacity=".7"/><circle cx="954" cy="252" r="1.0" fill="#fff" fill-opacity=".7"/><circle cx="1091" cy="313" r="1.6" fill="#fff" fill-opacity=".7"/><circle cx="28" cy="44" r="2.2" fill="#fff" fill-opacity=".7"/><circle cx="165" cy="105" r="1.0" fill="#fff" fill-opacity=".7"/><circle cx="302" cy="166" r="1.6" fill="#fff" fill-opacity=".7"/><circle cx="439" cy="227" r="2.2" fill="#fff" fill-opacity=".7"/><circle cx="576" cy="288" r="1.0" fill="#fff" fill-opacity=".7"/><circle cx="713" cy="19" r="1.6" fill="#fff" fill-opacity=".7"/><circle cx="850" cy="80" r="2.2" fill="#fff" fill-opacity=".7"/><circle cx="987" cy="141" r="1.0" fill="#fff" fill-opacity=".7"/><circle cx="1124" cy="202" r="1.6" fill="#fff" fill-opacity=".7"/><circle cx="61" cy="263" r="2.2" fill="#fff" fill-opacity=".7"/><circle cx="198" cy="324" r="1.0" fill="#fff" fill-opacity=".7"/><circle cx="335" cy="55" r="1.6" fill="#fff" fill-opacity=".7"/><circle cx="472" cy="116" r="2.2" fill="#fff" fill-opacity=".7"/><circle cx="609" cy="177" r="1.0" fill="#fff" fill-opacity=".7"/><circle cx="746" cy="238" r="1.6" fill="#fff" fill-opacity=".7"/><circle cx="883" cy="299" r="2.2" fill="#fff" fill-opacity=".7"/><circle cx="1020" cy="30" r="1.0" fill="#fff" fill-opacity=".7"/><circle cx="1157" cy="91" r="1.6" fill="#fff" fill-opacity=".7"/><circle cx="94" cy="152" r="2.2" fill="#fff" fill-opacity=".7"/><circle cx="231" cy="213" r="1.0" fill="#fff" fill-opacity=".7"/><circle cx="368" cy="274" r="1.6" fill="#fff" fill-opacity=".7"/><circle cx="505" cy="5" r="2.2" fill="#fff" fill-opacity=".7"/><circle cx="642" cy="66" r="1.0" fill="#fff" fill-opacity=".7"/><circle cx="779" cy="127" r="1.6" fill="#fff" fill-opacity=".7"/><circle cx="916" cy="188" r="2.2" fill="#fff" fill-opacity=".7"/><circle cx="1053" cy="249" r="1.0" fill="#fff" fill-opacity=".7"/><circle cx="1190" cy="310" r="1.6" fill="#fff" fill-opacity=".7"/><circle cx="127" cy="41" r="2.2" fill="#fff" fill-opacity=".7"/><circle cx="264" cy="102" r="1.0" fill="#fff" fill-opacity=".7"/><circle cx="401" cy="163" r="1.6" fill="#fff" fill-opacity=".7"/><circle cx="538" cy="224" r="2.2" fill="#fff" fill-opacity=".7"/><circle cx="675" cy="285" r="1.0" fill="#fff" fill-opacity=".7"/><circle cx="812" cy="16" r="1.6" fill="#fff" fill-opacity=".7"/><circle cx="949" cy="77" r="2.2" fill="#fff" fill-opacity=".7"/><circle cx="1086" cy="138" r="1.0" fill="#fff" fill-opacity=".7"/><circle cx="23" cy="199" r="1.6" fill="#fff" fill-opacity=".7"/><path d="M0 799 L580 380 L620 380 L1200 799Z" fill="#251450"/><circle cx="572" cy="352" r="28" fill="url(#lamp)"/><line x1="572" y1="385" x2="572" y2="352" stroke="#8c6ad6" stroke-width="1.4"/><circle cx="572" cy="352" r="2.9" fill="#ffd28a"/><circle cx="628" cy="352" r="28" fill="url(#lamp)"/><line x1="628" y1="385" x2="628" y2="352" stroke="#8c6ad6" stroke-width="1.4"/><circle cx="628" cy="352" r="2.9" fill="#ffd28a"/><circle cx="548" cy="357" r="36" fill="url(#lamp)"/><line x1="548" y1="401" x2="548" y2="357" stroke="#8c6ad6" stroke-width="1.9"/><circle cx="548" cy="357" r="3.8" fill="#ffd28a"/><circle cx="652" cy="357" r="36" fill="url(#lamp)"/><line x1="652" y1="401" x2="652" y2="357" stroke="#8c6ad6" stroke-width="1.9"/><circle cx="652" cy="357" r="3.8" fill="#ffd28a"/><circle cx="509" cy="366" r="43" fill="url(#lamp)"/><line x1="509" y1="427" x2="509" y2="366" stroke="#8c6ad6" stroke-width="2.3"/><circle cx="509" cy="366" r="4.7" fill="#ffd28a"/><circle cx="691" cy="366" r="43" fill="url(#lamp)"/><line x1="691" y1="427" x2="691" y2="366" stroke="#8c6ad6" stroke-width="2.3"/><circle cx="691" cy="366" r="4.7" fill="#ffd28a"/><circle cx="454" cy="378" r="51" fill="url(#lamp)"/><line x1="454" y1="463" x2="454" y2="378" stroke="#8c6ad6" stroke-width="2.8"/><circle cx="454" cy="378" r="5.6" fill="#ffd28a"/><circle cx="746" cy="378" r="51" fill="url(#lamp)"/><line x1="746" y1="463" x2="746" y2="378" stroke="#8c6ad6" stroke-width="2.8"/><circle cx="746" cy="378" r="5.6" fill="#ffd28a"/><circle cx="382" cy="393" r="59" fill="url(#lamp)"/><line x1="382" y1="510" x2="382" y2="393" stroke="#8c6ad6" stroke-width="3.2"/><circle cx="382" cy="393" r="6.4" fill="#ffd28a"/><circle cx="818" cy="393" r="59" fill="url(#lamp)"/><line x1="818" y1="510" x2="818" y2="393" stroke="#8c6ad6" stroke-width="3.2"/><circle cx="818" cy="393" r="6.4" fill="#ffd28a"/><circle cx="296" cy="412" r="67" fill="url(#lamp)"/><line x1="296" y1="567" x2="296" y2="412" stroke="#8c6ad6" stroke-width="3.7"/><circle cx="296" cy="412" r="7.3" fill="#ffd28a"/><circle cx="904" cy="412" r="67" fill="url(#lamp)"/><line x1="904" y1="567" x2="904" y2="412" stroke="#8c6ad6" stroke-width="3.7"/><circle cx="904" cy="412" r="7.3" fill="#ffd28a"/><circle cx="193" cy="435" r="74" fill="url(#lamp)"/><line x1="193" y1="634" x2="193" y2="435" stroke="#8c6ad6" stroke-width="4.1"/><circle cx="193" cy="435" r="8.2" fill="#ffd28a"/><circle cx="1007" cy="435" r="74" fill="url(#lamp)"/><line x1="1007" y1="634" x2="1007" y2="435" stroke="#8c6ad6" stroke-width="4.1"/><circle cx="1007" cy="435" r="8.2" fill="#ffd28a"/><circle cx="74" cy="461" r="82" fill="url(#lamp)"/><line x1="74" y1="712" x2="74" y2="461" stroke="#8c6ad6" stroke-width="4.6"/><circle cx="74" cy="461" r="9.1" fill="#ffd28a"/><circle cx="1126" cy="461" r="82" fill="url(#lamp)"/><line x1="1126" y1="712" x2="1126" y2="461" stroke="#8c6ad6" stroke-width="4.6"/><circle cx="1126" cy="461" r="9.1" fill="#ffd28a"/><circle cx="-60" cy="490" r="90" fill="url(#lamp)"/><line x1="-60" y1="800" x2="-60" y2="490" stroke="#8c6ad6" stroke-width="5.0"/><circle cx="-60" cy="490" r="10.0" fill="#ffd28a"/><circle cx="1260" cy="490" r="90" fill="url(#lamp)"/><line x1="1260" y1="800" x2="1260" y2="490" stroke="#8c6ad6" stroke-width="5.0"/><circle cx="1260" cy="490" r="10.0" fill="#ffd28a"/><circle cx="1000" cy="130" r="50" fill="#e9dcff"/><circle cx="1020" cy="120" r="46" fill="#1a1240"/></svg>