<svg xmlns="http://www.w3.org/2000/svg" viewBox="0 0 1183 887" width="1183" height="887"><defs></defs><rect width="1183" height="887" fill="#f7f3ff"/><polygon points="250,700 345,755 250,810 155,755" fill="#e7e0ff"/><polygon points="155,755 250,810 250,920 155,865" fill="#b9a8f0"/><polygon points="250,810 345,755 345,865 250,920" fill="#9a86e0"/><polygon points="360,536 455,591 360,646 265,591" fill="#d8f3ec"/><polygon points="265,591 360,646 360,756 265,701" fill="#9fd8c7"/><polygon points="360,646 455,591 455,701 360,756" fill="#7cc0ad"/><polygon points="470,372 565,427 470,482 375,427" fill="#ffe8d6"/><polygon points="375,427 470,482 470,592 375,537" fill="#f5bf9c"/><polygon points="470,482 565,427 565,537 470,592" fill="#e9a07a"/><polygon points="580,208 675,263 580,318 485,263" fill="#e7e0ff"/><polygon points="485,263 580,318 580,428 485,373" fill="#b9a8f0"/><polygon points="580,318 675,263 675,373 580,428" fill="#9a86e0"/><polygon points="690,44 785,99 690,154 595,99" fill="#d8f3ec"/><polygon points="595,99 690,154 690,264 595,209" fill="#9fd8c7"/><polygon points="690,154 785,99 785,209 690,264" fill="#7cc0ad"/><polygon points="800,-120 895,-65 800,-10 705,-65" fill="#ffe8d6"/><polygon points="705,-65 800,-10 800,100 705,45" fill="#f5bf9c"/><polygon points="800,-10 895,-65 895,45 800,100" fill="#e9a07a"/><polygon points="910,-284 1005,-229 910,-174 815,-229" fill="#e7e0ff"/><polygon points="815,-229 910,-174 910,-64 815,-119" fill="#b9a8f0"/><polygon points="910,-174 1005,-229 1005,-119 910,-64" fill="#9a86e0"/><polygon points="250,620 345,675 250,730 155,675" fill="#e7e0ff"/><polygon points="155,675 250,730 250,840 155,785" fill="#b9a8f0"/><polygon points="250,730 345,675 345,785 250,840" fill="#9a86e0"/><polygon points="360,556 455,611 360,666 265,611" fill="#d8f3ec"/><polygon points="265,611 360,666 360,776 265,721" fill="#9fd8c7"/><polygon points="360,666 455,611 455,721 360,776" fill="#7cc0ad"/><polygon points="470,492 565,547 470,602 375,547" fill="#ffe8d6"/><polygon points="375,547 470,602 470,712 375,657" fill="#f5bf9c"/><polygon points="470,602 565,547 565,657 470,712" fill="#e9a07a"/><polygon points="580,428 675,483 580,538 485,483" fill="#e7e0ff"/><polygon points="485,483 580,538 580,648 485,593" fill="#b9a8f0"/><polygon points="580,538 675,483 675,593 580,648" fill="#9a86e0"/><polygon points="690,364 785,419 690,474 595,419" fill="#d8f3ec"/><polygon points="595,419 690,474 690,584 595,529" fill="#9fd8c7"/><polygon points="690,474 785,419 785,529 690,584" fill="#7cc0ad"/><polygon points="800,300 895,355 800,410 705,355" fill="#ffe8d6"/><polygon points="705,355 800,410 800,520 705,465" fill="#f5bf9c"/><polygon points="800,410 895,355 895,465 800,520" fill="#e9a07a"/><polygon points="910,236 1005,291 910,346 815,291" fill="#e7e0ff"/><polygon points="815,291 910,346 910,456 815,401" fill="#b9a8f0"/><polygon points="910,346 1005,291 1005,401 910,456" fill="#9a86e0"/><path d="M1000 120 L1025 205 L1110 230 L1025 255 L1000 340 L975 255 L890 230 L975 205Z" fill="#ffc94d"/><line x1="1000" y1="230" x2="1200" y2="230" stroke="#ffc94d" stroke-width="3" stroke-dasharray="6 10"/><line x1="1000" y1="230" x2="1141" y2="371" stroke="#ffc94d" stroke-width="3" stroke-dasharray="6 10"/><line x1="1000" y1="230" x2="1000" y2="430" stroke="#ffc94d" stroke-width="3" stroke-dasharray="6 10"/><line x1="1000" y1="230" x2="859" y2="371" stroke="#ffc94d" stroke-width="3" stroke-dasharray="6 10"/><line x1="1000" y1="230" x2="800" y2="230" stroke="#ffc94d" stroke-width="3" stroke-dasharray="6 10"/><line x1="1000" y1="230" x2="859" y2="89" stroke="#ffc94d" stroke-width="3" stroke-dasharray="6 10"/><line x1="1000" y1="230" x2="1000" y2="30" stroke="#ffc94d" stroke-width="3" stroke-dasharray="6 10"/><line x1="1000" y1="230" x2="1141" y2="89" stroke="#ffc94d" stroke-width="3" stroke-dasharray="6 10"/></svg>