<svg xmlns="http://www.w3.org/2000/svg" viewBox="0 0 1200 900" width="1200" height="900"><defs><linearGradient id="sea" x1="0" y1="0" x2="0" y2="1"><stop offset="0" stop-color="#2a6df4"/><stop offset="1" stop-color="#020617"/></linearGradient><radialGradient id="jg"><stop offset="0" stop-color="#7df9ff" stop-opacity="0.5"/><stop offset="1" stop-color="#7df9ff" stop-opacity="0"/></radialGradient></defs><rect width="1200" height="900" fill="#000"/><rect width="1200" height="900" fill="url(#sea)"/><path d="M200 0 L60 900 L100 900 L240 0Z" fill="#fff" fill-opacity=".045"/><path d="M310 0 L210 900 L250 900 L350 0Z" fill="#fff" fill-opacity=".045"/><path d="M420 0 L360 900 L400 900 L460 0Z" fill="#fff" fill-opacity=".045"/><path d="M530 0 L510 900 L550 900 L570 0Z" fill="#fff" fill-opacity=".045"/><path d="M640 0 L660 900 L700 900 L680 0Z" fill="#fff" fill-opacity=".045"/><path d="M750 0 L810 900 L850 900 L790 0Z" fill="#fff" fill-opacity=".045"/><path d="M860 0 L960 900 L1000 900 L900 0Z" fill="#fff" fill-opacity=".045"/><path d="M970 0 L1110 900 L1150 900 L1010 0Z" fill="#fff" fill-opacity=".045"/><path d="M1080 0 L1260 900 L1300 900 L1120 0Z" fill="#fff" fill-opacity=".045"/><g transform="translate(700 560) scale(1)"><circle r="220" fill="url(#jg)"/><path d="M-110 0 C-110 -140 110 -140 110 0 Q55 -18 0 0 Q-55 -18 -110 0Z" fill="none" stroke="#bff8ff" stroke-width="4"/><path d="M-90 -4 C-60 80 -120 160 -80 260" fill="none" stroke="#bff8ff" stroke-width="2" stroke-opacity=".8"/><path d="M-60 -4 C-30 80 -90 160 -50 260" fill="none" stroke="#bff8ff" stroke-width="2" stroke-opacity=".8"/><path d="M-30 -4 C0 80 -60 160 -20 260" fill="none" stroke="#bff8ff" stroke-width="2" stroke-opacity=".8"/><path d="M0 -4 C30 80 -30 160 10 260" fill="none" stroke="#bff8ff" stroke-width="2" stroke-opacity=".8"/><path d="M30 -4 C60 80 0 160 40 260" fill="none" stroke="#bff8ff" stroke-width="2" stroke-opacity=".8"/><path d="M60 -4 C90 80 30 160 70 260" fill="none" stroke="#bff8ff" stroke-width="2" stroke-opacity=".8"/><path d="M90 -4 C120 80 60 160 100 260" fill="none" stroke="#bff8ff" stroke-width="2" stroke-opacity=".8"/></g><g transform="translate(360 700) scale(0.55)"><circle r="220" fill="url(#jg)"/><path d="M-110 0 C-110 -140 110 -140 110 0 Q55 -18 0 0 Q-55 -18 -110 0Z" fill="none" stroke="#bff8ff" stroke-width="4"/><path d="M-90 -4 C-60 80 -120 160 -80 260" fill="none" stroke="#bff8ff" stroke-width="2" stroke-opacity=".8"/><path d="M-60 -4 C-30 80 -90 160 -50 260" fill="none" stroke="#bff8ff" stroke-width="2" stroke-opacity=".8"/><path d="M-30 -4 C0 80 -60 160 -20 260" fill="none" stroke="#bff8ff" stroke-width="2" stroke-opacity=".8"/><path d="M0 -4 C30 80 -30 160 10 260" fill="none" stroke="#bff8ff" stroke-width="2" stroke-opacity=".8"/><path d="M30 -4 C60 80 0 160 40 260" fill="none" stroke="#bff8ff" stroke-width="2" stroke-opacity=".8"/><path d="M60 -4 C90 80 30 160 70 260" fill="none" stroke="#bff8ff" stroke-width="2" stroke-opacity=".8"/><path d="M90 -4 C120 80 60 160 100 260" fill="none" stroke="#bff8ff" stroke-width="2" stroke-opacity=".8"/></g><g transform="translate(950 380) scale(0.4)"><circle r="220" fill="url(#jg)"/><path d="M-110 0 C-110 -140 110 -140 110 0 Q55 -18 0 0 Q-55 -18 -110 0Z" fill="none" stroke="#bff8ff" stroke-width="4"/><path d="M-90 -4 C-60 80 -120 160 -80 260" fill="none" stroke="#bff8ff" stroke-width="2" stroke-opacity=".8"/><path d="M-60 -4 C-30 80 -90 160 -50 260" fill="none" stroke="#bff8ff" stroke-width="2" stroke-opacity=".8"/><path d="M-30 -4 C0 80 -60 160 -20 260" fill="none" stroke="#bff8ff" stroke-width="2" stroke-opacity=".8"/><path d="M0 -4 C30 80 -30 160 10 260" fill="none" stroke="#bff8ff" stroke-width="2" stroke-opacity=".8"/><path d="M30 -4 C60 80 0 160 40 260" fill="none" stroke="#bff8ff" stroke-width="2" stroke-opacity=".8"/><path d="M60 -4 C90 80 30 160 70 260" fill="none" stroke="#bff8ff" stroke-width="2" stroke-opacity=".8"/><path d="M90 -4 C120 80 60 160 100 260" fill="none" stroke="#bff8ff" stroke-width="2" stroke-opacity=".8"/></g><circle cx="626" cy="765" r="2.9" fill="#7df9ff" fill-opacity=".7"/><circle cx="348" cy="736" r="2.4" fill="#7df9ff" fill-opacity=".7"/><circle cx="794" cy="277" r="1.1" fill="#7df9ff" fill-opacity=".7"/><circle cx="461" cy="722" r="1.5" fill="#7df9ff" fill-opacity=".7"/><circle cx="602" cy="422" r="2.7" fill="#7df9ff" fill-opacity=".7"/><circle cx="1134" cy="481" r="3.0" fill="#7df9ff" fill-opacity=".7"/><circle cx="75" cy="769" r="2.8" fill="#7df9ff" fill-opacity=".7"/><circle cx="181" cy="694" r="2.1" fill="#7df9ff" fill-opacity=".7"/><circle cx="1146" cy="347" r="2.1" fill="#7df9ff" fill-opacity=".7"/><circle cx="1059" cy="647" r="1.6" fill="#7df9ff" fill-opacity=".7"/><circle cx="98" cy="858" r="1.9" fill="#7df9ff" fill-opacity=".7"/><circle cx="1196" cy="299" r="2.6" fill="#7df9ff" fill-opacity=".7"/><circle cx="976" cy="844" r="1.0" fill="#7df9ff" fill-opacity=".7"/><circle cx="447" cy="236" r="2.5" fill="#7df9ff" fill-opacity=".7"/><circle cx="426" cy="872" r="1.7" fill="#7df9ff" fill-opacity=".7"/><circle cx="929" cy="807" r="1.5" fill="#7df9ff" fill-opacity=".7"/><circle cx="668" cy="870" r="2.1" fill="#7df9ff" fill-opacity=".7"/><circle cx="432" cy="387" r="2.6" fill="#7df9ff" fill-opacity=".7"/><circle cx="231" cy="623" r="2.1" fill="#7df9ff" fill-opacity=".7"/><circle cx="664" cy="291" r="2.3" fill="#7df9ff" fill-opacity=".7"/><circle cx="1100" cy="423" r="1.7" fill="#7df9ff" fill-opacity=".7"/><circle cx="1091" cy="605" r="1.5" fill="#7df9ff" fill-opacity=".7"/><circle cx="12" cy="727" r="1.7" fill="#7df9ff" fill-opacity=".7"/><circle cx="561" cy="391" r="2.3" fill="#7df9ff" fill-opacity=".7"/><circle cx="875" cy="417" r="1.2" fill="#7df9ff" fill-opacity=".7"/><circle cx="1184" cy="837" r="1.0" fill="#7df9ff" fill-opacity=".7"/><circle cx="677" cy="680" r="1.8" fill="#7df9ff" fill-opacity=".7"/><circle cx="878" cy="872" r="2.2" fill="#7df9ff" fill-opacity=".7"/><circle cx="470" cy="337" r="1.5" fill="#7df9ff" fill-opacity=".7"/><circle cx="181" cy="277" r="1.4" fill="#7df9ff" fill-opacity=".7"/><circle cx="1010" cy="576" r="2.6" fill="#7df9ff" fill-opacity=".7"/><circle cx="1104" cy="768" r="1.1" fill="#7df9ff" fill-opacity=".7"/><circle cx="1111" cy="265" r="2.5" fill="#7df9ff" fill-opacity=".7"/><circle cx="1007" cy="660" r="1.8" fill="#7df9ff" fill-opacity=".7"/><circle cx="90" cy="260" r="2.3" fill="#7df9ff" fill-opacity=".7"/><circle cx="290" cy="573" r="1.5" fill="#7df9ff" fill-opacity=".7"/><circle cx="196" cy="407" r="2.4" fill="#7df9ff" fill-opacity=".7"/><circle cx="584" cy="475" r="2.0" fill="#7df9ff" fill-opacity=".7"/><circle cx="665" cy="561" r="1.9" fill="#7df9ff" fill-opacity=".7"/><circle cx="1161" cy="726" r="1.5" fill="#7df9ff" fill-opacity=".7"/><circle cx="382" cy="332" r="1.7" fill="#7df9ff" fill-opacity=".7"/><circle cx="34" cy="721" r="2.1" fill="#7df9ff" fill-opacity=".7"/><circle cx="507" cy="825" r="1.7" fill="#7df9ff" fill-opacity=".7"/><circle cx="694" cy="851" r="2.1" fill="#7df9ff" fill-opacity=".7"/><circle cx="736" cy="458" r="3.0" fill="#7df9ff" fill-opacity=".7"/><circle cx="906" cy="412" r="1.7" fill="#7df9ff" fill-opacity=".7"/><circle cx="710" cy="563" r="2.0" fill="#7df9ff" fill-opacity=".7"/><circle cx="231" cy="603" r="2.4" fill="#7df9ff" fill-opacity=".7"/><circle cx="918" cy="515" r="1.9" fill="#7df9ff" fill-opacity=".7"/><circle cx="605" cy="575" r="1.9" fill="#7df9ff" fill-opacity=".7"/><circle cx="15" cy="384" r="3.0" fill="#7df9ff" fill-opacity=".7"/><circle cx="992" cy="527" r="2.5" fill="#7df9ff" fill-opacity=".7"/><circle cx="253" cy="387" r="2.0" fill="#7df9ff" fill-opacity=".7"/><circle cx="839" cy="219" r="1.9" fill="#7df9ff" fill-opacity=".7"/><circle cx="1087" cy="629" r="3.0" fill="#7df9ff" fill-opacity=".7"/><circle cx="118" cy="836" r="2.7" fill="#7df9ff" fill-opacity=".7"/><circle cx="31" cy="576" r="2.5" fill="#7df9ff" fill-opacity=".7"/><circle cx="266" cy="655" r="2.7" fill="#7df9ff" fill-opacity=".7"/><circle cx="953" cy="500" r="1.1" fill="#7df9ff" fill-opacity=".7"/><circle cx="647" cy="332" r="2.1" fill="#7df9ff" fill-opacity=".7"/><circle cx="323" cy="443" r="2.1" fill="#7df9ff" fill-opacity=".7"/><circle cx="984" cy="883" r="1.8" fill="#7df9ff" fill-opacity=".7"/><circle cx="9" cy="725" r="1.7" fill="#7df9ff" fill-opacity=".7"/><circle cx="909" cy="781" r="1.1" fill="#7df9ff" fill-opacity=".7"/><circle cx="877" cy="399" r="1.6" fill="#7df9ff" fill-opacity=".7"/><circle cx="401" cy="577" r="1.5" fill="#7df9ff" fill-opacity=".7"/><circle cx="593" cy="398" r="1.2" fill="#7df9ff" fill-opacity=".7"/><circle cx="300" cy="677" r="1.6" fill="#7df9ff" fill-opacity=".7"/><circle cx="240" cy="456" r="1.4" fill="#7df9ff" fill-opacity=".7"/><circle cx="1181" cy="751" r="1.3" fill="#7df9ff" fill-opacity=".7"/><circle cx="353" cy="505" r="2.1" fill="#7df9ff" fill-opacity=".7"/><circle cx="466" cy="566" r="2.5" fill="#7df9ff" fill-opacity=".7"/><circle cx="185" cy="591" r="1.3" fill="#7df9ff" fill-opacity=".7"/><circle cx="642" cy="422" r="2.6" fill="#7df9ff" fill-opacity=".7"/><circle cx="1057" cy="870" r="1.8" fill="#7df9ff" fill-opacity=".7"/><circle cx="740" cy="318" r="2.4" fill="#7df9ff" fill-opacity=".7"/><circle cx="934" cy="499" r="1.6" fill="#7df9ff" fill-opacity=".7"/><circle cx="910" cy="725" r="2.6" fill="#7df9ff" fill-opacity=".7"/><circle cx="346" cy="370" r="1.5" fill="#7df9ff" fill-opacity=".7"/><circle cx="229" cy="205" r="1.2" fill="#7df9ff" fill-opacity=".7"/><circle cx="591" cy="501" r="2.8" fill="#7df9ff" fill-opacity=".7"/><circle cx="454" cy="319" r="2.9" fill="#7df9ff" fill-opacity=".7"/><circle cx="87" cy="438" r="2.5" fill="#7df9ff" fill-opacity=".7"/><circle cx="386" cy="875" r="2.5" fill="#7df9ff" fill-opacity=".7"/><circle cx="370" cy="804" r="2.8" fill="#7df9ff" fill-opacity=".7"/><circle cx="617" cy="300" r="1.2" fill="#7df9ff" fill-opacity=".7"/><circle cx="982" cy="822" r="2.3" fill="#7df9ff" fill-opacity=".7"/><circle cx="929" cy="756" r="1.5" fill="#7df9ff" fill-opacity=".7"/><circle cx="256" cy="807" r="2.7" fill="#7df9ff" fill-opacity=".7"/><circle cx="523" cy="389" r="1.2" fill="#7df9ff" fill-opacity=".7"/></svg>